<?xml version="1.0" encoding="UTF-8" standalone="no"?>
<!-- Created with Inkscape (http://www.inkscape.org/) -->

<svg
   xmlns:dc="http://purl.org/dc/elements/1.1/"
   xmlns:cc="http://creativecommons.org/ns#"
   xmlns:rdf="http://www.w3.org/1999/02/22-rdf-syntax-ns#"
   xmlns:svg="http://www.w3.org/2000/svg"
   xmlns="http://www.w3.org/2000/svg"
   xmlns:sodipodi="http://sodipodi.sourceforge.net/DTD/sodipodi-0.dtd"
   xmlns:inkscape="http://www.inkscape.org/namespaces/inkscape"
   width="210mm"
   height="297mm"
   viewBox="0 0 210 297"
   version="1.1"
   id="svg8"
   inkscape:version="0.92.5 (2060ec1f9f, 2020-04-08)"
   sodipodi:docname="region_view.svg">
  <defs
     id="defs2" />
  <sodipodi:namedview
     id="base"
     pagecolor="#ffffff"
     bordercolor="#666666"
     borderopacity="1.0"
     inkscape:pageopacity="0.0"
     inkscape:pageshadow="2"
     inkscape:zoom="2.8284271"
     inkscape:cx="-1004.9673"
     inkscape:cy="605.21686"
     inkscape:document-units="mm"
     inkscape:current-layer="layer1"
     showgrid="false"
     showborder="false"
     inkscape:window-width="3432"
     inkscape:window-height="1347"
     inkscape:window-x="0"
     inkscape:window-y="48"
     inkscape:window-maximized="1" />
  <metadata
     id="metadata5">
    <rdf:RDF>
      <cc:Work
         rdf:about="">
        <dc:format>image/svg+xml</dc:format>
        <dc:type
           rdf:resource="http://purl.org/dc/dcmitype/StillImage" />
        <dc:title></dc:title>
      </cc:Work>
    </rdf:RDF>
  </metadata>
  <g
     inkscape:label="Layer 1"
     inkscape:groupmode="layer"
     id="layer1">
    <rect
       style="fill:#505050;fill-opacity:1;stroke:#000000;stroke-width:0.48650908;stroke-miterlimit:4;stroke-dasharray:none;stroke-dashoffset:0;stroke-opacity:1"
       id="rect815"
       width="210.99057"
       height="289.49866"
       x="-314.07693"
       y="-69.0485"
       ry="2.828454" />
    <text
       xml:space="preserve"
       style="font-style:normal;font-variant:normal;font-weight:normal;font-stretch:normal;font-size:10.58333302px;line-height:1.25;font-family:'FiraCode NF';-inkscape-font-specification:'FiraCode NF';letter-spacing:0px;word-spacing:0px;fill:#000000;fill-opacity:1;stroke:none;stroke-width:0.26458332"
       x="-234.34521"
       y="-78.708336"
       id="text819"><tspan
         sodipodi:role="line"
         id="tspan817"
         x="-234.34521"
         y="-78.708336"
         style="stroke-width:0.26458332">AWSH app</tspan></text>
    <rect
       style="fill:none;fill-opacity:1;stroke:#000000;stroke-width:0.18587521;stroke-miterlimit:4;stroke-dasharray:none;stroke-dashoffset:0;stroke-opacity:1"
       id="rect821"
       width="44.302338"
       height="9.4669371"
       x="-307.71219"
       y="-59.093132"
       ry="0.7566219" />
    <rect
       style="fill:#eca1a1;fill-opacity:1;stroke:none;stroke-width:0.18978783;stroke-miterlimit:4;stroke-dasharray:none;stroke-dashoffset:0;stroke-opacity:1"
       id="rect827"
       width="9.6663675"
       height="3.5411446"
       x="-307.76398"
       y="-48.700233"
       ry="1.7705723" />
    <rect
       ry="1.7705723"
       y="-48.700233"
       x="-297.18066"
       height="3.5411446"
       width="9.6663675"
       id="rect831"
       style="fill:#a1a9ec;fill-opacity:1;stroke:none;stroke-width:0.18978783;stroke-miterlimit:4;stroke-dasharray:none;stroke-dashoffset:0;stroke-opacity:1" />
    <rect
       ry="0.7566219"
       y="-59.093132"
       x="-260.08728"
       height="9.4669371"
       width="44.302338"
       id="rect833"
       style="fill:none;fill-opacity:1;stroke:#a0a2e1;stroke-width:0.18587521;stroke-miterlimit:4;stroke-dasharray:none;stroke-dashoffset:0;stroke-opacity:1" />
    <rect
       ry="1.7705723"
       y="-48.700233"
       x="-260.13907"
       height="3.5411446"
       width="9.6663675"
       id="rect835"
       style="fill:#eca1a1;fill-opacity:1;stroke:none;stroke-width:0.18978783;stroke-miterlimit:4;stroke-dasharray:none;stroke-dashoffset:0;stroke-opacity:1" />
    <rect
       style="fill:#a1eca6;fill-opacity:1;stroke:none;stroke-width:0.18978783;stroke-miterlimit:4;stroke-dasharray:none;stroke-dashoffset:0;stroke-opacity:1"
       id="rect837"
       width="9.6663675"
       height="3.5411446"
       x="-249.55573"
       y="-48.700233"
       ry="1.7705723" />
    <path
       style="fill:none;stroke:#000000;stroke-width:0.26458332px;stroke-linecap:butt;stroke-linejoin:miter;stroke-opacity:1"
       d="M -312.03717,88.930691 H -106.106"
       id="path841"
       inkscape:connector-curvature="0" />
    <path
       inkscape:connector-curvature="0"
       id="path843"
       d="M -312.03717,104.80568 H -106.106"
       style="fill:none;stroke:#000000;stroke-width:0.26458332px;stroke-linecap:butt;stroke-linejoin:miter;stroke-opacity:1" />
    <text
       xml:space="preserve"
       style="font-style:normal;font-variant:normal;font-weight:normal;font-stretch:normal;font-size:4.02051449px;line-height:1.25;font-family:'FiraCode NF';-inkscape-font-specification:'FiraCode NF';letter-spacing:0px;word-spacing:0px;fill:#d37676;fill-opacity:1;stroke:none;stroke-width:0.10051286"
       x="-310.92477"
       y="98.064034"
       id="text847"><tspan
         sodipodi:role="line"
         id="tspan845"
         x="-310.92477"
         y="98.064034"
         style="fill:#d37676;fill-opacity:1;stroke-width:0.10051286">id:</tspan></text>
    <text
       id="text851"
       y="98.024857"
       x="-302.72543"
       style="font-style:normal;font-variant:normal;font-weight:normal;font-stretch:normal;font-size:4.02051449px;line-height:1.25;font-family:'FiraCode NF';-inkscape-font-specification:'FiraCode NF';letter-spacing:0px;word-spacing:0px;fill:#fefbfb;fill-opacity:1;stroke:none;stroke-width:0.10051286"
       xml:space="preserve"><tspan
         style="fill:#fefbfb;fill-opacity:1;stroke-width:0.10051286"
         y="98.024857"
         x="-302.72543"
         id="tspan849"
         sodipodi:role="line">i - 123456789</tspan></text>
    <text
       id="text855"
       y="98.064034"
       x="-266.47482"
       style="font-style:normal;font-variant:normal;font-weight:normal;font-stretch:normal;font-size:4.02051449px;line-height:1.25;font-family:'FiraCode NF';-inkscape-font-specification:'FiraCode NF';letter-spacing:0px;word-spacing:0px;fill:#d37676;fill-opacity:1;stroke:none;stroke-width:0.10051286"
       xml:space="preserve"><tspan
         style="fill:#d37676;fill-opacity:1;stroke-width:0.10051286"
         y="98.064034"
         x="-266.47482"
         id="tspan853"
         sodipodi:role="line">ami:</tspan></text>
    <text
       xml:space="preserve"
       style="font-style:normal;font-variant:normal;font-weight:normal;font-stretch:normal;font-size:4.02051449px;line-height:1.25;font-family:'FiraCode NF';-inkscape-font-specification:'FiraCode NF';letter-spacing:0px;word-spacing:0px;fill:#fefbfb;fill-opacity:1;stroke:none;stroke-width:0.10051286"
       x="-254.57127"
       y="98.024857"
       id="text859"><tspan
         sodipodi:role="line"
         id="tspan857"
         x="-254.57127"
         y="98.024857"
         style="fill:#fefbfb;fill-opacity:1;stroke-width:0.10051286">ami-abcdfghikl</tspan></text>
    <text
       xml:space="preserve"
       style="font-style:normal;font-variant:normal;font-weight:normal;font-stretch:normal;font-size:4.02051449px;line-height:1.25;font-family:'FiraCode NF';-inkscape-font-specification:'FiraCode NF';letter-spacing:0px;word-spacing:0px;fill:#91dca8;fill-opacity:1;stroke:none;stroke-width:0.10051286;"
       x="-310.9339"
       y="110.94685"
       id="text847-3"><tspan
         sodipodi:role="line"
         id="tspan845-6"
         x="-310.9339"
         y="110.94685"
         style="fill:#91dca8;fill-opacity:1;stroke-width:0.10051286;">keys:</tspan></text>
    <g
       aria-label="instance"
       style="font-style:normal;font-variant:normal;font-weight:normal;font-stretch:normal;font-size:4.02051449px;line-height:1.25;font-family:'FiraCode NF';-inkscape-font-specification:'FiraCode NF';letter-spacing:0px;word-spacing:0px;fill:#91dca8;fill-opacity:1;stroke:none;stroke-width:0.10051286"
       id="text917">
      <g
         id="g944"
         transform="translate(-1.5875)">
        <path
           id="path919"
           style="fill:#ff1f1f;fill-opacity:1;stroke-width:0.10051286"
           d="m -295.14475,108.22115 c -0.14639,0 -0.24948,0.10515 -0.24948,0.24123 0,0.14021 0.10309,0.24742 0.24948,0.24742 0.15463,0 0.2536,-0.10721 0.2536,-0.24742 0,-0.13608 -0.099,-0.24123 -0.2536,-0.24123 z m 0.27628,1.01647 h -0.99585 v 0.27422 h 0.64946 v 1.62264 h -0.67008 v 0.27422 h 1.62882 v -0.27422 h -0.61235 z"
           inkscape:connector-curvature="0" />
        <path
           id="path921"
           style="fill:#ffffff;fill-opacity:1;stroke-width:0.10051286"
           d="m -293.49326,111.4087 h 0.34639 v -1.5814 c 0.1134,-0.16907 0.32988,-0.36288 0.58555,-0.36288 0.32782,0 0.37112,0.17938 0.37112,0.62266 v 1.32162 h 0.34639 v -1.57728 c 0,-0.39999 -0.18351,-0.63916 -0.6103,-0.63916 -0.25154,0 -0.54019,0.12371 -0.71751,0.34638 l -0.0268,-0.30102 h -0.29484 z"
           inkscape:connector-curvature="0" />
        <path
           id="path923"
           style="fill:#ffffff;fill-opacity:1;stroke-width:0.10051286"
           d="m -290.28097,111.16953 c -0.25567,0 -0.48247,-0.0928 -0.65153,-0.23505 l -0.19794,0.22886 c 0.18556,0.16083 0.45772,0.29278 0.84947,0.29278 0.4639,0 0.91544,-0.1835 0.91544,-0.64741 0,-0.40617 -0.28041,-0.55462 -0.70514,-0.67008 -0.43916,-0.11959 -0.57731,-0.18763 -0.57731,-0.38143 0,-0.16701 0.12784,-0.28453 0.4701,-0.28453 0.2804,0 0.46802,0.0825 0.63091,0.19381 l 0.15257,-0.23505 c -0.18144,-0.13402 -0.43916,-0.23917 -0.78761,-0.23917 -0.49071,0 -0.82472,0.2268 -0.82472,0.59174 0,0.37731 0.28865,0.51339 0.74019,0.62472 0.45978,0.11547 0.52576,0.22062 0.52576,0.41649 0,0.2103 -0.20618,0.34432 -0.54019,0.34432 z"
           inkscape:connector-curvature="0" />
        <path
           id="path925"
           style="fill:#ffffff;fill-opacity:1;stroke-width:0.10051286"
           d="m -286.82128,111.29942 -0.13401,-0.23504 c -0.11753,0.0619 -0.25361,0.10309 -0.41649,0.10309 -0.2969,0 -0.41442,-0.1299 -0.41442,-0.37113 v -1.29068 h 0.70926 l 0.0412,-0.26804 h -0.7505 v -0.53401 l -0.34638,0.0412 v 0.49277 h -0.49896 v 0.26804 h 0.49896 v 1.29481 c 0,0.38349 0.26391,0.65565 0.72988,0.65565 0.20205,0 0.43297,-0.0598 0.58142,-0.1567 z"
           inkscape:connector-curvature="0" />
        <path
           id="path927"
           style="fill:#ffffff;fill-opacity:1;stroke-width:0.10051286"
           d="m -284.51619,110.93448 v -1.04121 c 0,-0.42885 -0.27216,-0.70101 -0.81235,-0.70101 -0.2103,0 -0.44535,0.0371 -0.70926,0.13608 l 0.0907,0.26185 c 0.22474,-0.0784 0.42061,-0.11134 0.56494,-0.11134 0.3237,0 0.51751,0.11752 0.51751,0.43092 v 0.18144 h -0.31958 c -0.65978,0 -1.01853,0.24741 -1.01853,0.69482 0,0.40412 0.26597,0.67009 0.70101,0.67009 0.28041,0 0.52576,-0.10309 0.6804,-0.30515 0.0618,0.19381 0.2103,0.28041 0.39792,0.30515 l 0.0845,-0.24329 c -0.12165,-0.0371 -0.17732,-0.10309 -0.17732,-0.27835 z m -0.89688,0.25773 c -0.28247,0 -0.41855,-0.1402 -0.41855,-0.4103 0,-0.27834 0.17526,-0.45566 0.65359,-0.45566 h 0.3134 v 0.55875 c -0.1299,0.19381 -0.33401,0.30721 -0.54844,0.30721 z"
           inkscape:connector-curvature="0" />
        <path
           id="path929"
           style="fill:#ffffff;fill-opacity:1;stroke-width:0.10051286"
           d="m -283.59663,111.4087 h 0.34638 v -1.5814 c 0.1134,-0.16907 0.32989,-0.36288 0.58556,-0.36288 0.32782,0 0.37112,0.17938 0.37112,0.62266 v 1.32162 h 0.34638 v -1.57728 c 0,-0.39999 -0.1835,-0.63916 -0.61029,-0.63916 -0.25154,0 -0.54019,0.12371 -0.71751,0.34638 l -0.0268,-0.30102 h -0.29484 z"
           inkscape:connector-curvature="0" />
        <path
           id="path931"
           style="fill:#ffffff;fill-opacity:1;stroke-width:0.10051286"
           d="m -280.14105,111.15716 c -0.37319,0 -0.64329,-0.24536 -0.64329,-0.82472 0,-0.57318 0.26804,-0.85153 0.64329,-0.85153 0.18968,0 0.37524,0.066 0.56081,0.19381 l 0.16906,-0.23092 c -0.20618,-0.167 -0.44741,-0.25154 -0.72575,-0.25154 -0.65153,0 -1.02265,0.48865 -1.02265,1.14018 0,0.68039 0.36906,1.12368 1.01853,1.12368 0.25566,0 0.54431,-0.10103 0.734,-0.26185 l -0.16907,-0.2268 c -0.16082,0.11134 -0.34638,0.18969 -0.56493,0.18969 z"
           inkscape:connector-curvature="0" />
        <path
           id="path933"
           style="fill:#ffffff;fill-opacity:1;stroke-width:0.10051286"
           d="m -278.37616,110.44584 h 1.45976 c 0.004,-0.0474 0.008,-0.11546 0.008,-0.18969 0,-0.65978 -0.33401,-1.06389 -0.88245,-1.06389 -0.5773,0 -0.94843,0.47628 -0.94843,1.13399 0,0.67421 0.35876,1.12987 0.99379,1.12987 0.2701,0 0.54432,-0.0969 0.74638,-0.25566 l -0.16289,-0.22886 c -0.19174,0.12989 -0.35875,0.19587 -0.57936,0.19587 -0.33608,0 -0.61648,-0.21855 -0.63504,-0.72163 z m 0.58968,-0.96905 c 0.32576,0 0.53607,0.23711 0.54431,0.70101 h -1.13193 c 0.0289,-0.47834 0.26391,-0.70101 0.58762,-0.70101 z"
           inkscape:connector-curvature="0" />
      </g>
    </g>
    <text
       id="text948"
       y="116.76768"
       x="-310.9339"
       style="font-style:normal;font-variant:normal;font-weight:normal;font-stretch:normal;font-size:4.02051449px;line-height:1.25;font-family:'FiraCode NF';-inkscape-font-specification:'FiraCode NF';letter-spacing:0px;word-spacing:0px;fill:#91dadc;fill-opacity:1;stroke:none;stroke-width:0.10051286"
       xml:space="preserve"><tspan
         style="fill:#91dadc;fill-opacity:1;stroke-width:0.10051286"
         y="116.76768"
         x="-310.9339"
         id="tspan946"
         sodipodi:role="line">Search: </tspan></text>
    <text
       xml:space="preserve"
       style="font-style:normal;font-variant:normal;font-weight:normal;font-stretch:normal;font-size:4.02051449px;line-height:1.25;font-family:'FiraCode NF';-inkscape-font-specification:'FiraCode NF';letter-spacing:0px;word-spacing:0px;fill:#ffffff;fill-opacity:1;stroke:none;stroke-width:0.10051286"
       x="-310.9339"
       y="123.64685"
       id="text962"><tspan
         sodipodi:role="line"
         id="tspan960"
         x="-310.9339"
         y="123.64685"
         style="fill:#ffffff;fill-opacity:1;stroke-width:0.10051286">Result1</tspan></text>
    <text
       id="text966"
       y="128.93852"
       x="-310.9339"
       style="font-style:normal;font-variant:normal;font-weight:normal;font-stretch:normal;font-size:4.02051449px;line-height:1.25;font-family:'FiraCode NF';-inkscape-font-specification:'FiraCode NF';letter-spacing:0px;word-spacing:0px;fill:#ffffff;fill-opacity:1;stroke:none;stroke-width:0.10051286"
       xml:space="preserve"><tspan
         style="fill:#ffffff;fill-opacity:1;stroke-width:0.10051286"
         y="128.93852"
         x="-310.9339"
         id="tspan964"
         sodipodi:role="line">Result2</tspan></text>
    <text
       xml:space="preserve"
       style="font-style:normal;font-variant:normal;font-weight:normal;font-stretch:normal;font-size:4.02051449px;line-height:1.25;font-family:'FiraCode NF';-inkscape-font-specification:'FiraCode NF';letter-spacing:0px;word-spacing:0px;fill:#ffffff;fill-opacity:1;stroke:none;stroke-width:0.10051286"
       x="-310.9339"
       y="134.23019"
       id="text970"><tspan
         sodipodi:role="line"
         id="tspan968"
         x="-310.9339"
         y="134.23019"
         style="fill:#ffffff;fill-opacity:1;stroke-width:0.10051286">Result3</tspan></text>
  </g>
</svg>
